<?xml version="1.0" encoding="utf-8"?><svg viewBox="0 0 2000 1999.2" xmlns="http://www.w3.org/2000/svg" xmlns:xlink="http://www.w3.org/1999/xlink"><style>:root>svg{display:none}:root>svg:target{display:block}</style><svg fill="none" viewBox="0 0 90 90" id="AI" xmlns="http://www.w3.org/2000/svg"><path d="M4.003 4.454h81.76v81.005H4.004V4.454z" fill="url(#apaint0_radial)"/><path d="M4.003 4.454h81.76v81.005H4.004V4.454zM.288 89.242h89.21V.67H.287v88.572zm58.43-56.992c0-.31.108-.455.447-.455h5.842c.303 0 .446.109.446.455v29.87c0 .309-.071.454-.446.454h-5.77c-.375 0-.483-.182-.483-.491V32.25h-.035zm-.41-8.605c0-2.42 1.679-3.856 3.787-3.856 2.269 0 3.787 1.546 3.787 3.856 0 2.492-1.59 3.857-3.859 3.857-2.143.018-3.715-1.346-3.715-3.857zm-16.72 21.047c-1.036-4.202-3.501-13.352-4.43-17.79h-.072c-.786 4.42-2.75 11.915-4.305 17.79h8.807zm-10.325 6.13l-2.93 11.352c-.071.31-.178.382-.554.382h-5.466c-.375 0-.446-.11-.375-.564l10.557-37.62c.179-.672.304-1.29.376-3.146 0-.273.107-.382.303-.382h7.806c.268 0 .376.073.447.382l11.826 40.839c.071.31 0 .491-.304.491h-6.163c-.304 0-.482-.073-.554-.346l-3.054-11.387H31.263z" fill="#FF7F18"/><defs><radialGradient id="apaint0_radial" cx="0" cy="0" r="1" gradientUnits="userSpaceOnUse" gradientTransform="matrix(62.1406 0 0 61.2673 30.958 22.63)"><stop stop-color="#423325" stop-opacity=".98"/><stop offset="1" stop-color="#1C0A00"/></radialGradient></defs></svg><svg fill="none" viewBox="0 0 59 90" id="Figma" xmlns="http://www.w3.org/2000/svg"><g clip-path="url(#bclip0)"><path d="M15.051 89.66c8.039 0 14.559-6.64 14.559-14.825V60.009H15.05C7.013 60.01.493 66.65.493 74.835S7.013 89.66 15.05 89.66z" fill="#0ACF83"/><path d="M.493 45.165c0-8.186 6.52-14.825 14.558-14.825H29.61v29.67H15.05C7.013 59.99.493 53.35.493 45.164z" fill="#A259FF"/><path d="M.493 15.496C.493 7.31 7.013.67 15.05.67H29.61v29.67H15.05C7.013 30.34.493 23.681.493 15.496z" fill="#F24E1E"/><path d="M29.628.67h14.558c8.039 0 14.559 6.64 14.559 14.826S52.225 30.32 44.186 30.32H29.628V.67z" fill="#FF7262"/><path d="M58.745 45.165c0 8.186-6.52 14.826-14.559 14.826-8.038 0-14.558-6.64-14.558-14.826s6.52-14.825 14.558-14.825c8.039 0 14.56 6.64 14.56 14.825z" fill="#1ABCFE"/></g><defs><clipPath id="bclip0"><path fill="#fff" transform="translate(.493 .67)" d="M0 0h58.252v88.991H0z"/></clipPath></defs></svg><svg viewBox="0 0 90 90" id="GULP" xmlns="http://www.w3.org/2000/svg"><defs><style>.ccls-1{fill:#d34a47}.ccls-2{fill:#fff}</style></defs><g id="cСлой_2" data-name="Слой 2"><g id="cСлой_1-2" data-name="Слой 1"><path class="ccls-1" d="M0 0h90v90H0z"/><path class="ccls-2" d="M28.67 68.06v.76a4.54 4.54 0 01-1.34 3.4 4.8 4.8 0 01-3.48 1.3 5.15 5.15 0 01-3.76-1.47 4.91 4.91 0 01-1.49-3.61 5.05 5.05 0 015.14-5.11 5.19 5.19 0 012.51.62A4.69 4.69 0 0128 65.61l-1.65 1a2.66 2.66 0 00-1.06-1 3.28 3.28 0 00-1.57-.37 3.11 3.11 0 00-2.31.91 3.18 3.18 0 00-.9 2.32 3.09 3.09 0 00.92 2.29 3.32 3.32 0 002.43.9 3.25 3.25 0 001.85-.49 2.47 2.47 0 001-1.37h-3v-1.74zM33.62 73.52a3.93 3.93 0 01-2.68-.92 3.14 3.14 0 01-1.05-2.48v-6.59h1.92V70a1.61 1.61 0 00.44 1.21 2.33 2.33 0 002.75 0 1.61 1.61 0 00.44-1.21v-6.47h1.94v6.59a3.14 3.14 0 01-1.05 2.48 4 4 0 01-2.71.92zM41 71.48h3.74v1.85h-5.63v-9.8H41zM49.53 63.53a3.25 3.25 0 012.38 1 3.32 3.32 0 010 4.67 3.26 3.26 0 01-2.38 1h-1.72v3.22h-1.94v-9.8zm0 4.77a1.33 1.33 0 001-.43 1.46 1.46 0 00.47-1.05 1.49 1.49 0 00-.41-1.07 1.36 1.36 0 00-1-.42h-1.78v3zM54.54 73.16a1.18 1.18 0 01-1.68 0 1.18 1.18 0 01-.35-.84 1.15 1.15 0 01.35-.84 1.18 1.18 0 011.68 0 1.15 1.15 0 01.35.84 1.18 1.18 0 01-.35.84zM59.43 73.52a3.32 3.32 0 01-3.24-1.86l1.67-1a1.62 1.62 0 001.57.92 1.59 1.59 0 001.14-.36 1.3 1.3 0 00.38-1v-6.69h1.92v6.74a3 3 0 01-1 2.4 3.58 3.58 0 01-2.44.85zM68 73.52a4.43 4.43 0 01-2.45-.65 3.46 3.46 0 01-1.4-1.77l1.65-1a2.21 2.21 0 002.2 1.53 2 2 0 001.19-.29.92.92 0 00.38-.74.9.9 0 00-.47-.81 6.75 6.75 0 00-1.65-.62 9.88 9.88 0 01-1.11-.39 4.76 4.76 0 01-.91-.53 2.13 2.13 0 01-.69-.83 2.73 2.73 0 01-.24-1.18 2.63 2.63 0 01.94-2.12 3.42 3.42 0 012.28-.79 3.75 3.75 0 012.09.58 4 4 0 011.41 1.62l-1.63.94a2 2 0 00-1.87-1.26 1.51 1.51 0 00-1 .27.86.86 0 00-.34.71.88.88 0 00.39.74 5.07 5.07 0 001.47.63c.3.09.53.16.68.22l.63.23a4.55 4.55 0 01.62.3 5.56 5.56 0 01.49.38 1.92 1.92 0 01.43.49 2.67 2.67 0 01.25.61 2.77 2.77 0 01.11.78 2.62 2.62 0 01-1 2.15 3.91 3.91 0 01-2.45.8z"/><g><path class="ccls-2" d="M50.36 53.48l.42-7 1.16-2a20.3 20.3 0 01-7.07 1.08 20.22 20.22 0 01-7-1.06l1.3 2.16.46 6.81c0 .73 2.4 1.32 5.37 1.32s5.38-.59 5.38-1.32M49 20.75l.89-3.49 4.88-5.14L53.52 11l-5.18 5.5-1 4.17h-2.32c-5.45 0-9.87.62-9.87 1.39s4.42 1.39 9.87 1.39 9.87-.62 9.87-1.39c0-.56-2.4-1.05-5.84-1.27"/><path class="ccls-2" d="M48.52 22.71a4.35 4.35 0 01-.75 0c-.57 0-1 0-1.13-.15a.25.25 0 01-.06-.16.22.22 0 01.16-.2l.09.13s-.06 0-.06.05a2.39 2.39 0 001 .12c.44 0 1 0 1-.12s0 0-.11-.06l.09-.13c.11 0 .21.1.21.22s-.25.23-.42.26M54.79 12.13c.13-.14-.06-.51-.41-.81s-.74-.44-.86-.3.06.51.41.81.74.44.86.3M50.12 36.36c-.11-1.11 2.44-2.73 1.79-2.78-1.41.08-2.12 1.65-2.83 3.3-.26.61-1.15 3.18-1.73 2.86s.76-2.43 1.13-3.69c-.43.32-2 1.55-2.43.4-.66.56-2.07.86-1.91-.61-.35.62-1.14 1.49-2.08 1.13-1.24-.47.72-4.42 1.21-4.22s-.1 1.09-.26 1.44c-.33.77-.72 1.74-.46 1.94.44.34 1.66-1.29 1.68-1.32.23-.3.88-2.26 1.4-2s-1.3 2.82-.62 3.33c.14.1.7-.06 1-.43s.14-.77.88-2.53 1.39-3.94 1.9-3.78.09 1.29-.09 1.71c-.85 2-2.32 5.21-1.63 5A3 3 0 0048.84 35c.68-.79.65-2.1 1.1-2.07s.38.44.27.76c.45-.51 2.11-1.58 2.52-.52.47 1.26-2.39 3.08-1.68 3a4.36 4.36 0 002.31-1.45l1.32-11.91s-1.33 1.1-9.81 1.1-9.67-1.11-9.67-1.11l1.13 10.87c.6-1.7 2-5.14 4.26-5 1 .06 2.38 2 1.21 2.09-.49 0-.54-1-1.13-1.13a1.7 1.7 0 00-1.38.61c-.76.74-2.39 3.66-2.17 5.11.27 1.86 2.56-.64 3-1.39.27-.52.45-2.07 1-1.91s0 1.77-.49 3.18c-.48 1.59-.74 3.26-1.34 3.07s.38-2.24.34-2.6c-.57.53-1.62 1.86-3 1.2l.7 6.75s1.86 1.47 7.47 1.47 7.53-1.45 7.53-1.45l.87-7.81c-.71.69-3 1.92-3.11.53"/></g></g></g></svg><svg fill="none" viewBox="0 0 90 90" id="PS" xmlns="http://www.w3.org/2000/svg"><path d="M3.934 4.426H85.6V85.28H3.934V4.426z" fill="url(#dpaint0_radial)"/><path d="M3.934 4.426H85.6V85.28H3.934V4.426zM.221 89.06h89.073V.646H.221V89.06zM60.288 36.93c-2.928 0-3.927 1.508-3.927 2.762 0 1.363.66 2.307 4.605 4.379 5.82 2.87 7.64 5.632 7.64 9.666 0 6.05-4.534 9.303-10.657 9.303-3.23 0-6.015-.672-7.604-1.617-.268-.11-.303-.31-.303-.6v-5.578c0-.382.178-.49.446-.309a13.66 13.66 0 007.461 2.235c2.928 0 4.16-1.254 4.16-2.944 0-1.362-.858-2.561-4.606-4.542-5.266-2.562-7.462-5.16-7.462-9.52 0-4.87 3.75-8.922 10.247-8.922 3.195 0 5.426.49 6.64 1.054.303.182.375.49.375.763v5.178c0 .31-.179.49-.553.382-1.643-1.054-4.053-1.69-6.462-1.69zM28.37 41.42c.857.073 1.518.073 3 .073 4.337 0 8.424-1.545 8.424-7.559 0-4.797-2.927-7.213-7.872-7.213-1.481 0-2.891.073-3.57.109l.018 14.59zm-6.622-20.06c0-.272.517-.454.82-.454 2.375-.108 5.91-.181 9.569-.181 10.281 0 14.298 5.741 14.298 13.064 0 9.593-6.837 13.718-15.227 13.718-1.41 0-1.892-.073-2.891-.073v14.5c0 .308-.108.454-.447.454h-5.676c-.303 0-.446-.11-.446-.455V21.36z" fill="#31C5F0"/><defs><radialGradient id="dpaint0_radial" cx="0" cy="0" r="1" gradientUnits="userSpaceOnUse" gradientTransform="matrix(62.0565 0 0 61.1565 30.838 22.566)"><stop stop-color="#34364E" stop-opacity=".98"/><stop offset="1" stop-color="#0C0824"/></radialGradient></defs></svg><svg viewBox="-11.9 -2 1003.9 995.6" id="VScode" xmlns="http://www.w3.org/2000/svg"><path d="M12.1 353.9s-24-17.3 4.8-40.4l67.1-60s19.2-20.2 39.5-2.6l619.2 468.8v224.8s-.3 35.3-45.6 31.4z" fill="#2489ca"/><path d="M171.7 498.8L12.1 643.9s-16.4 12.2 0 34l74.1 67.4s17.6 18.9 43.6-2.6L299 614.4z" fill="#1070b3"/><path d="M451.9 500l292.7-223.5-1.9-223.6s-12.5-48.8-54.2-23.4L299 384z" fill="#0877b9"/><path d="M697.1 976.2c17 17.4 37.6 11.7 37.6 11.7l228.1-112.4c29.2-19.9 25.1-44.6 25.1-44.6V159.7c0-29.5-30.2-39.7-30.2-39.7L760 24.7c-43.2-26.7-71.5 4.8-71.5 4.8s36.4-26.2 54.2 23.4v887.5c0 6.1-1.3 12.1-3.9 17.5-5.2 10.5-16.5 20.3-43.6 16.2z" fill="#3c99d4"/></svg><svg id="XD" viewBox="0 0 240 234" xmlns="http://www.w3.org/2000/svg"><style>.fst0{fill:#2e001e}.fst1{fill:#ff2bc2}</style><path class="fst0" d="M10 10h220v214H10z"/><path class="fst1" d="M0 0v234h240V0H0zm10 10h220v214H10V10z"/><path class="fst1" d="M174.3 98.3c-1.5-.7-3.4-1-5.8-1-12.6 0-21 9.7-21 25.8 0 18.4 8.6 25.8 19.8 25.8 2.4 0 5-.3 6.9-1.1V98.3h.1zm-44.8 25.6c0-23.3 15-41.5 39.6-41.5 2.1 0 3.2 0 5.2.2v-26c0-.6.5-1 1-1h16.1c.8 0 1 .3 1 .8v91.4c0 2.7 0 6.1.5 9.8 0 .7 0 .8-.6 1.1-8.4 4-17.2 5.8-25.6 5.8-21.7 0-37.2-13.4-37.2-40.6zm-34.1-16.2l28 54.3c.5.8.2 1.6-.6 1.6h-17.4c-1.1 0-1.6-.3-2.1-1.3-6.4-13.2-12.9-26.9-19.6-41.1h-.2c-6 13.4-12.6 28-19 41.2-.5.8-1 1.1-1.8 1.1H46.1c-1 0-1.1-.8-.6-1.4l27.4-52.7L46.4 57c-.6-.8 0-1.5.7-1.5h17.2c1 0 1.5.2 1.8 1.1C72.4 69.9 78.8 83 84.8 96.4h.2c5.8-13.2 12.2-26.5 18.3-39.6.5-.8.8-1.3 1.8-1.3h16.1c.8 0 1.1.6.6 1.5l-26.4 50.7z"/></svg><svg viewBox="0 0 90 90" id="Zeplin" xmlns="http://www.w3.org/2000/svg"><defs><style>.gcls-1{fill:#424242}.gcls-2{font-size:16px;fill:#fff;font-family:MyriadPro-Regular,Myriad Pro}.gcls-3{fill:#f89920}.gcls-3,.gcls-4,.gcls-5,.gcls-6{fill-rule:evenodd}.gcls-4{fill:#ffbe22}.gcls-5,.gcls-7{fill:#f0670a}.gcls-6{fill:#ffd00e}</style></defs><g id="gСлой_2" data-name="Слой 2"><g id="gСлой_1-2" data-name="Слой 1"><path class="gcls-1" d="M0 0h90v90H0z"/><text class="gcls-2" transform="translate(21.43 73.33)">ZEPLIN</text><g id="gg891"><path id="gpath4" class="gcls-3" d="M25.89 43.72l-5.05-5.65 15.44-5.62 2.41 6.61z"/><path id="gpath6" class="gcls-4" d="M25.85 43.61l-.24 7.57 15.44-5.62-2.4-6.56z"/><path id="gpath8" class="gcls-5" d="M68.76 28.12c2.2 6.39-4.9 14.77-15.94 18.79S31 49.07 28.53 42.76z"/><path id="gpath10" class="gcls-6" d="M68.76 28.12c-2.4-6.32-13.24-8.19-24.3-4.16S26.31 36.38 28.53 42.77z"/><path id="gpath12" class="gcls-3" d="M68.76 28.12c1.37 4.28-6.34 10.93-17.35 14.93s-21.18 3.87-22.88-.29z"/><path id="gpath14" class="gcls-4" d="M68.76 28.12c-1.67-4.17-11.87-4.32-22.89-.3S27.13 38.5 28.53 42.76z"/><path id="gpath16" class="gcls-7" d="M50.2 22.33c-1.05-3.63-2.25-5.65-3.61-5.61-2.62.08-3.51 8.41-2.66 19.09S47 54.7 49.8 54.63c1.66-.05 2.59-2.7 2.92-7.3 0-.1-.1 0-.09-.13s0-.16-.08-.17h-.35c-.29 4.47-1.16 7-2.41 7.08-2.29.06-4.49-8-5.32-18.33-.81-10.19.07-18.44 2.14-18.5 1 0 2.08 1.83 3.06 5.18z"/><path id="gpath18" class="gcls-7" d="M37.18 19.74c-2.24 1.38 1.16 9 7.24 17.86S56.54 52.42 58.91 51c1.32-.81 1-3.28-.75-7a.28.28 0 00-.36-.14.26.26 0 00-.14.35c1.59 3.46 1.93 5.72 1 6.31-2 1.2-7.87-4.65-13.77-13.21s-9.17-16-7.4-17.09c.94-.58 3.17.82 6.12 3.83a2.91 2.91 0 00.27.24c.09 0 0-.16.12-.24a.28.28 0 000-.38c-3.15-3.22-5.52-4.7-6.79-3.91z"/></g></g></g></svg><svg viewBox="0 0 90 90" id="css" xmlns="http://www.w3.org/2000/svg"><defs><style>.hcls-1{fill:#7bb7ff}.hcls-2{fill:#304277}.hcls-3{fill:#384ede}.hcls-4{fill:#4365ec}.hcls-5{fill:#e9e9e9}.hcls-6{fill:#fff}</style></defs><g id="hСлой_2" data-name="Слой 2"><g id="hСлой_1-2" data-name="Слой 1"><path class="hcls-1" d="M0 0h90v90H0z"/><path class="hcls-2" d="M32 73.52a4.9 4.9 0 01-3.65-1.47 5.3 5.3 0 010-7.26A4.93 4.93 0 0132 63.33a5 5 0 012.46.62 4.62 4.62 0 011.76 1.69l-1.67 1a2.52 2.52 0 00-1-1 3 3 0 00-1.55-.43 3.05 3.05 0 00-2.3.89 3.5 3.5 0 000 4.64 3.37 3.37 0 003.82.52 2.51 2.51 0 001-1l1.67 1a4.66 4.66 0 01-1.75 1.69 5.06 5.06 0 01-2.44.57zM40.7 73.52a4.41 4.41 0 01-2.45-.65 3.46 3.46 0 01-1.4-1.77l1.65-1a2.21 2.21 0 002.26 1.5 2 2 0 001.24-.26.92.92 0 00.38-.74.9.9 0 00-.47-.81 6.75 6.75 0 00-1.65-.62 9.88 9.88 0 01-1.11-.39 4.76 4.76 0 01-.91-.53 2.13 2.13 0 01-.69-.83 2.73 2.73 0 01-.24-1.18 2.63 2.63 0 01.94-2.12 3.42 3.42 0 012.28-.79 3.75 3.75 0 012.09.58A4 4 0 0144 65.53l-1.63.94a2 2 0 00-1.87-1.26 1.51 1.51 0 00-.95.27.86.86 0 00-.34.71.9.9 0 00.38.74 5.31 5.31 0 001.48.63c.3.09.53.16.68.22l.63.23a4.55 4.55 0 01.62.3 5.56 5.56 0 01.49.38 1.92 1.92 0 01.43.49 2.67 2.67 0 01.25.61 2.77 2.77 0 01.11.78 2.62 2.62 0 01-1 2.15 3.91 3.91 0 01-2.58.8zM48.57 73.52a4.41 4.41 0 01-2.45-.65 3.46 3.46 0 01-1.4-1.77l1.65-1a2.21 2.21 0 002.26 1.5 2 2 0 001.19-.29.91.91 0 00.37-.74.9.9 0 00-.46-.81 7.1 7.1 0 00-1.65-.62 9.88 9.88 0 01-1.08-.36 4.48 4.48 0 01-.91-.53 2.15 2.15 0 01-.7-.83 2.73 2.73 0 01-.23-1.18 2.63 2.63 0 01.94-2.12 3.42 3.42 0 012.28-.79 3.75 3.75 0 012.09.58 4 4 0 011.41 1.62l-1.63.94a2 2 0 00-1.87-1.26 1.49 1.49 0 00-1 .27.86.86 0 00-.34.71.9.9 0 00.38.74 5.31 5.31 0 001.48.63l.68.22.63.23a4.33 4.33 0 01.61.3 5.55 5.55 0 01.5.38 1.92 1.92 0 01.43.49 2.67 2.67 0 01.25.61 2.77 2.77 0 01.11.78 2.62 2.62 0 01-1 2.15 3.93 3.93 0 01-2.54.8zM60.92 67.5a3.28 3.28 0 011.61 1 2.63 2.63 0 01.63 1.77 2.92 2.92 0 01-1 2.37 3.7 3.7 0 01-2.48.85 4 4 0 01-2-.52 3 3 0 01-1.31-1.55l1.65-1a1.6 1.6 0 001.71 1.13 1.74 1.74 0 001.15-.35 1.23 1.23 0 00.42-1 1.2 1.2 0 00-.42-1 1.64 1.64 0 00-1.22-.2h-.42l-.74-1.12 1.93-2.52h-3.84v-1.8h6.16v1.59z"/><g><path class="hcls-3" d="M45 53.63l-12.3-3.41-2.76-30.75h30.12l-2.74 30.74L45 53.63z"/><path class="hcls-4" d="M55 48.26L57.31 22H45v29l10-2.76z"/><path class="hcls-5" d="M36.22 33.39l.34 3.77H45v-3.77zm-.68-7.63l.35 3.77H45v-3.77zM45 43.18l-4.2-1.14-.26-3h-3.81l.53 5.96L45 47.11z"/><path class="hcls-6" d="M53.75 33.39l.68-7.63H45v3.77h5.3l-.3 3.86h-5v3.77h4.64l-.44 4.89-4.2 1.14v3.92L52.72 45l.05-.64.89-9.93.09-1z"/></g></g></g></svg><svg viewBox="0 0 90 90" id="html" xmlns="http://www.w3.org/2000/svg"><defs><style>.icls-1{fill:#ffa96e}.icls-2{fill:#894a20}.icls-3{fill:#c54e2d}.icls-4{fill:#d36531}.icls-5{fill:#e9e9e9}.icls-6{fill:#fff}</style></defs><g id="iСлой_2" data-name="Слой 2"><g id="iСлой_1-2" data-name="Слой 1"><path class="icls-1" d="M0 0h90v90H0z"/><path class="icls-2" d="M28.38 63.53h1.91v9.8h-1.91v-4.06h-3.65v4.06H22.8v-9.8h1.93v3.89h3.65zM38.6 63.53v1.84H36v8h-2v-8h-2.61v-1.84zM49.26 63.53v9.8h-1.91V67l-2.76 4.55h-.23L41.6 67v6.35h-1.93v-9.8h2l2.82 4.63 2.79-4.63zM53 71.48h3.73v1.85h-5.65v-9.8H53zM64.35 67.1a3.48 3.48 0 012.38.84 3.32 3.32 0 010 4.73 3.74 3.74 0 01-2.49.85A4.15 4.15 0 0162.1 73a3.06 3.06 0 01-1.32-1.57l1.66-1a1.63 1.63 0 001.76 1.17 1.76 1.76 0 001.16-.35 1.25 1.25 0 00.41-1 1.22 1.22 0 00-.41-1 1.56 1.56 0 00-1.1-.37h-3l.39-5.44h5.56v1.8h-3.74l-.12 1.77z"/><g><path class="icls-3" d="M32.7 50.17l-2.74-30.69h30.08L57.3 50.17l-12.32 3.41-12.28-3.41z"/><path class="icls-4" d="M45 50.97l9.95-2.76 2.34-26.23H45v28.99z"/><path class="icls-5" d="M45 33.37h-4.98l-.35-3.86H45v-3.76h-9.44l.09 1.01.93 10.37H45v-3.76zM45 43.15h-.02l-4.19-1.13-.27-3H36.74l.53 5.91 7.71 2.14.02-.01v-3.91z"/><path class="icls-6" d="M44.99 33.37v3.76h4.63l-.43 4.89-4.2 1.13v3.92l7.71-2.14.06-.64.89-9.91.09-1.01h-8.75zM44.99 25.75v3.76h9.09l.08-.84.17-1.91.09-1.01h-9.43z"/></g></g></g></svg><svg viewBox="0 0 90 90" id="js" xmlns="http://www.w3.org/2000/svg"><defs><style>.jcls-1{fill:#ffcd50}.jcls-2{fill:#664a10}.jcls-3{fill:#3b352c}.jcls-4{fill:#da7c4a}.jcls-5{fill:#e2944d}.jcls-6{fill:#fff}.jcls-7{fill:#e7e7e7}</style></defs><g id="jСлой_2" data-name="Слой 2"><g id="jСлой_1-2" data-name="Слой 1"><path class="jcls-1" d="M0 0h90v90H0z"/><path class="jcls-2" d="M13.24 73.52A3.29 3.29 0 0110 71.66l1.66-1a1.62 1.62 0 001.57.92 1.62 1.62 0 001.15-.36 1.33 1.33 0 00.38-1v-6.69h1.92v6.74a3.05 3.05 0 01-1 2.4 3.59 3.59 0 01-2.44.85zM23.59 66.33h1.8v7h-1.8v-.83a2.75 2.75 0 01-2.28 1 3.2 3.2 0 01-2.41-1.07 3.95 3.95 0 010-5.25 3.2 3.2 0 012.41-1.07 2.75 2.75 0 012.28 1zm-3.33 4.92a1.84 1.84 0 001.38.55 1.86 1.86 0 001.36-.55 1.94 1.94 0 00.56-1.42 1.91 1.91 0 00-.56-1.42 1.87 1.87 0 00-1.39-.56 1.85 1.85 0 00-1.38.56 1.9 1.9 0 00-.55 1.42 1.93 1.93 0 00.58 1.42zM31.64 66.33h2l-2.66 7h-2.07l-2.66-7h2l1.69 4.9zM39.53 66.33h1.81v7h-1.81v-.83a2.75 2.75 0 01-2.28 1 3.19 3.19 0 01-2.4-1.07 3.95 3.95 0 010-5.25 3.19 3.19 0 012.4-1.07 2.75 2.75 0 012.28 1zm-3.33 4.92a2 2 0 002.78 0 1.93 1.93 0 00.55-1.42 2 2 0 00-3.33-1.42 1.93 1.93 0 00-.54 1.42 2 2 0 00.54 1.42zM46.41 73.52a4.41 4.41 0 01-2.41-.65 3.41 3.41 0 01-1.4-1.77l1.65-1a2.19 2.19 0 002.25 1.5 2 2 0 001.19-.29.93.93 0 00-.08-1.55 7.1 7.1 0 00-1.65-.62 10.91 10.91 0 01-1.12-.39 5.09 5.09 0 01-.91-.53 2.22 2.22 0 01-.69-.83 2.73 2.73 0 01-.24-1.15 2.64 2.64 0 01.95-2.12 3.41 3.41 0 012.27-.79 3.79 3.79 0 012.1.58 3.89 3.89 0 011.4 1.62l-1.62.94a2 2 0 00-1.88-1.26 1.48 1.48 0 00-.94.27.86.86 0 00-.34.71.87.87 0 00.38.74 5.31 5.31 0 001.48.63l.68.22.63.23a4.33 4.33 0 01.61.3 5.55 5.55 0 01.5.38 1.92 1.92 0 01.43.49 3.21 3.21 0 01.25.61 2.78 2.78 0 01.1.78 2.64 2.64 0 01-1 2.15 3.93 3.93 0 01-2.59.8zM54.67 73.52a3.7 3.7 0 110-7.39 3.59 3.59 0 011.86.49 3.29 3.29 0 011.27 1.32l-1.55.91a1.58 1.58 0 00-.64-.69 1.95 1.95 0 00-2.3.29 1.86 1.86 0 00-.53 1.38 1.83 1.83 0 00.53 1.36 1.79 1.79 0 001.34.54 2 2 0 001-.24 1.59 1.59 0 00.63-.68l1.57.89a3.55 3.55 0 01-3.16 1.82zM60.64 67.53a1.91 1.91 0 01.84-1 2.58 2.58 0 011.29-.33v2a2.13 2.13 0 00-1.47.34 1.6 1.6 0 00-.66 1.46v3.35h-1.8v-7h1.8zM64.72 65.49a1.1 1.1 0 01-.78-1.89 1.08 1.08 0 011.57 0 1.11 1.11 0 01-.79 1.89zm-.9 7.84v-7h1.81v7zM71.35 66.13a3.2 3.2 0 012.42 1.07 3.95 3.95 0 010 5.25 3.2 3.2 0 01-2.42 1.07 2.69 2.69 0 01-2.26-1v3.63h-1.81v-9.8h1.81v.82a2.69 2.69 0 012.26-1.04zm-1.72 5.12a2 2 0 002.78 0 1.93 1.93 0 00.59-1.42 2 2 0 00-3.33-1.42 1.93 1.93 0 00-.54 1.42 2 2 0 00.5 1.42zM79.89 68.06h-1.58V71a.68.68 0 00.19.54.86.86 0 00.53.19 8.51 8.51 0 00.86 0v1.64a3.85 3.85 0 01-2.62-.37 2.34 2.34 0 01-.76-2v-2.94h-1.22v-1.73h1.22v-1.42l1.8-.54v2h1.58z"/><g><path class="jcls-3" d="M44.98 53.58l-12.3-3.42-2.74-30.74h30.12l-2.74 30.74"/><path class="jcls-3" d="M54.97 48.2l2.34-26.27H45v29.04"/><path class="jcls-3" d="M45.68 25.7v3.78l8.43-.19.32-3.59M52.74 33.34h-7.06v3.77l4.81-.32-.43 5.05-4.38 1.11v3.91l7.04-1.95.05-.63.89-9.93.09-1.01"/><path class="jcls-3" d="M48.8 35.27h-3.12v-7.68h3.46M44.2 42.92l-4.88-1.39-.16-2.11-2.43-.43.53 5.92 6.94 1.93"/><path class="jcls-3" d="M44.2 25.7h-3.21l.67 19.33h2.54"/><path class="jcls-4" d="M44.98 53.58l-12.3-3.42-2.74-30.74h30.12l-2.74 30.74"/><path class="jcls-5" d="M54.97 48.2l2.34-26.27H45v29.04"/><path class="jcls-6" d="M45.68 25.7v3.78l8.43-.19.32-3.59M52.74 33.34h-7.06v3.77l4.81-.32-.43 5.05-4.38 1.11v3.91l7.04-1.95.05-.63.89-9.93.09-1.01"/><path class="jcls-6" d="M48.8 35.27h-3.12v-7.68h3.46"/><path class="jcls-7" d="M44.2 42.92l-4.88-1.39-.16-2.11-2.43-.43.53 5.92 6.94 1.93"/><path class="jcls-7" d="M44.2 25.7h-3.21l.67 19.33h2.54"/></g></g></g></svg><svg preserveAspectRatio="xMidYMid" viewBox="0 0 256 293" id="sass" xmlns="http://www.w3.org/2000/svg"><path d="M78.67 179.029c-4.65 2.907-11.656 7.619-17.076 12.743-8.898 8.403-10.76 20.059-6.066 22.782 4.342 2.517 14.479-.478 21.734-8.392 7.614-8.308 10.754-18.84 7.511-30.796-.381.227-.755.455-1.122.667l.008.017-.492.278c-1.893 1.13-3.44 2.063-4.497 2.7zm130.671-3.773c-2.634 5.725-2.766 7.566-1.966 8.14 3.822-1.373 10.145-4.682 10.195-13.55.008-1.328-.285-2.752-.755-4.242-4.086 3.618-6.441 7.406-7.474 9.652zm41.01-17.306c-10.21-1.19-18.177.242-24.36 2.818 1.145 2.98 2.025 6.083 2.149 9.21.287 6.863-4.437 11.942-9.36 15.569-2.875 2.114-5.934 3.523-8.502 4.374-2.053.865-4.782 1.76-6.719 1.365-4.27-.868-6.543-4.66-3.638-13.028 1.569-4.528 6.095-11.42 13.401-17.358-1.665-3.428-3.521-6.92-4.467-10.13-1.864-6.326-2.427-10.15-2.427-10.15s-6.022 12.486-13.791 23.84c-.448.66-.895 1.306-1.343 1.951 1.526 3.547 2.728 7.297 2.891 11.077.286 6.863-2.685 12.052-7.615 15.67-2.669 1.968-5.516 3.327-7.959 4.192-1.562.681-4.739 1.804-9.257 2.106-2.471.169-4.848.016-6.175-.99-1.827-1.38-2.047-3.084-1.101-5.41.8-1.976 6.785-8.808 11.803-14.79a123.815 123.815 0 003.887-4.903l-.029-.066s.909-1.173 2.384-3.221c-1.834-3.95-4.159-8.06-5.252-11.788-1.864-6.327-2.428-10.151-2.428-10.151s-6.104 15.649-12.463 28.14c-4.921 9.675-8.208 15.538-9.689 18.108l-.015.103s-.221.375-.602.962l-.285.476-.008-.044c-1.651 2.438-5.355 7.214-9.037 7.214-10.108 0-6.397-20.529-6.397-20.529s-2.955 7.605-6.286 14.13c-2.713 5.32-5.185 9.828-10.591 9.828-1.555 0-4.02-.044-6.067-1.99-4.643-4.411-8.193-15.612-7.497-24.287.594-7.376 1.731-12.486 3.286-16.748a336.981 336.981 0 00-9.242 5.219l-5.018 2.957.162.294c4.151 8.03 5.259 25.623-3.793 39.127-9.051 13.512-25.9 21.733-42.316 17.168-5.297-1.475-13.299-12.433-6.397-27.707 6.088-13.47 30.419-26.203 36.831-29.381l1.76-.97c-12.784-11.185-44.708-26.275-49.182-49.454-1.262-6.525 1.797-22.13 20.956-40.067 16.115-15.084 38.532-26.637 59.24-33.999 34.79-12.366 71.548-5.072 77.203 17.11 5.56 21.814-13.364 47.907-37.6 57.287-21.639 8.374-39.53 7.046-46.88 4.632-8.355-2.745-13.255-8.258-14.45-11.37-.47-1.219-1.278-3.266 0-3.97.784-.434 1.099-.33 3.197 1.989 1.996 2.202 10.02 8.11 25.263 6.4 40-4.484 64.095-35.584 56.481-52.319-5.332-11.713-36.162-16.998-74.68 2.21-47.019 23.442-49.571 42.768-49.974 50.108-1.101 20.192 24.902 30.813 38.972 45.829l.542.595c2.633-1.453 5.414-2.987 8.142-4.484a8176.293 8176.293 0 0116.901-9.258c4.952-7.197 15-15.14 22.255-15.14 11.597 0 7.614 16.668 7.614 16.668s.235-.762.55-.77c.33-.008 1.607-2.196 5.187-.89 3.682 1.352 2.845 3.936 2.868 4.2.044.512-4.35 15.331-6.176 24.837-.874 4.536-.368 7.84-.11 7.84.359 0 1.093-1.154 1.775-2.393l-.015-.037s.513-.94 1.372-2.627l.169-.353.007.016a213.875 213.875 0 004.078-8.507c3.22-7.097 15.506-34.498 16.548-37.528 1.041-3.031 1.584-6.166 2.098-7.51.506-1.343 4.849-2.356 9.924-2.319 5.076.037 5.591 2.203 5.626 2.65.037.447-2.413 6.46-2.978 10.709-.557 4.25-.021 6.37.441 9.938.301 2.333 1.76 5.292 3.485 8.645 5.252-8.588 14.493-25.013 15.381-29.615.608-3.148 1.584-6.165 2.098-7.51.513-1.343 4.849-2.355 9.924-2.319 5.076.038 5.589 2.203 5.626 2.65.037.448-2.421 6.46-2.978 10.71-.558 4.242-.021 6.37.44 9.938.397 3.052 2.758 7.155 5.099 11.822 6.388-3.148 13.907-5.261 22.71-5.305 3.645-.022 7.878.344 10.064 1.026V80.055c0-4.954-2.539-9.52-6.829-11.993L134.616 1.855a13.78 13.78 0 00-13.812 0L6.573 68.03C2.289 70.504 0 75.076 0 80.022v132.47c0 4.946 2.303 9.519 6.58 11.992l114.415 66.225a13.645 13.645 0 0013.76 0l114.467-66.226c4.283-2.48 6.778-7.047 6.778-11.992v-53.536c-1.453-.428-3.58-.765-5.649-1.006zm-123.232-6.938c-2.457 2.752-6.645 9.85-8.604 15.79-3.895 11.793-2.208 23.78.55 24.5 3.22.843 8.502-14.922 11.031-21.088 1.585-3.862 7.747-20.999 6.397-23.288-1.054-1.791-5.42-.345-9.374 4.087zm44.563 39.752s-.777.736-.441.94c.455.272 1.438-.08 2.509-.639 3.03-1.906 9.829-6.663 9.844-13.702 0-.206-.008-.404-.022-.617a276.359 276.359 0 01-4.284 5.475c-2.142 2.665-7.606 8.543-7.606 8.543z" fill="#8CC84B"/></svg><svg viewBox="26.6 26.6 446.8 446.7" id="sublime" xmlns="http://www.w3.org/2000/svg"><linearGradient id="la" gradientUnits="userSpaceOnUse" x1="136.178" x2="372.681" y1="369.638" y2="287.81"><stop offset=".233" stop-color="#f89822"/><stop offset="1" stop-color="#c27818"/></linearGradient><path d="M456.1 473.3H43.9c-9.5 0-17.3-7.8-17.3-17.3V43.9c0-9.5 7.8-17.3 17.3-17.3h412.2c9.5 0 17.3 7.8 17.3 17.3v412.2c-.1 9.5-7.8 17.2-17.3 17.2z" fill="#4d4d4e"/><path d="M129.6 161.5l233.8-74.2s16.6-8.7 12.6 7.4l.6 71.5s2.9 10.5-11.5 13.1l-95 29.7z" fill="#f89820"/><path d="M129.6 161.5s-9.2 2.2-6.5 17.9l-.5 68.9s-.8 8.7 15.7 12.2L370 335.1s7.8 3.1 6.9-6.5l.1-76.8s2.2-7.9-12.2-13.1L270.1 209z" fill="#f89820"/><path d="M231.7 290.5l-98.6 30.1s-11.9.4-10.5 22.7-.1 67.2-.1 67.2 1 8.3 12.4 3.5l233.8-74.6s8.3-2.1 1.3-4.4c-7-2.2-138.3-44.5-138.3-44.5z" fill="url(#la)"/></svg></svg>