<?xml version="1.0" encoding="utf-8"?><svg viewBox="0 0 44 44" xmlns="http://www.w3.org/2000/svg" xmlns:xlink="http://www.w3.org/1999/xlink"><style>:root>svg{display:none}:root>svg:target{display:block}</style><svg fill="none" viewBox="0 0 44 44" id="facebook" xmlns="http://www.w3.org/2000/svg"><path d="M38.032 43.67H5.87A5.466 5.466 0 01.402 38.2V5.968A5.466 5.466 0 015.87.5h32.162A5.466 5.466 0 0143.5 5.968V38.13c0 3.093-2.446 5.54-5.468 5.54z" fill="#F0EDF4"/><path clip-rule="evenodd" d="M18.102 28.992v-6.476c0-.36-.072-.503-.432-.431h-2.014c-.288 0-.36-.072-.36-.36v-4.03c0-.287.072-.359.36-.359h2.086c.432 0 .504-.144.504-.503v-3.094c0-1.224.36-2.447 1.079-3.454.935-1.295 2.302-1.87 3.813-1.943 1.583-.071 3.166 0 4.749-.071.216 0 .288.071.288.287v4.101c0 .216-.072.288-.288.288h-2.302c-1.008 0-1.655.504-1.727 1.511-.072.792 0 1.655 0 2.446 0 .288.144.288.36.288h3.453c.36 0 .432.072.432.432-.144 1.367-.288 2.734-.36 4.03 0 .287-.144.359-.432.359h-2.734c-.647 0-.575-.072-.575.575v12.663c0 .432-.144.576-.576.576h-4.748c-.432 0-.504-.144-.504-.504-.072-2.086-.072-4.245-.072-6.331z" stroke="#877998" stroke-width="1.4" stroke-miterlimit="10" stroke-linecap="round" stroke-linejoin="round"/></svg><svg fill="none" viewBox="0 0 44 44" id="telegram" xmlns="http://www.w3.org/2000/svg"><path d="M38.367 43.67H6.205A5.466 5.466 0 01.737 38.2V5.968A5.466 5.466 0 016.205.5h32.162a5.466 5.466 0 015.468 5.468V38.13c0 3.093-2.446 5.54-5.468 5.54z" fill="#F0EDF4"/><path d="M17.79 32.517v-6.979l9.497-8.418-12.52 7.051-5.971-2.95 23.527-9.353-3.885 20.65-7.843-4.533-2.806 4.532z" stroke="#877998" stroke-width="1.4" stroke-miterlimit="10" stroke-linecap="round" stroke-linejoin="round"/></svg><svg fill="none" viewBox="0 0 44 44" id="viber" xmlns="http://www.w3.org/2000/svg"><path d="M37.701 43.67H5.468A5.466 5.466 0 010 38.2V5.968A5.466 5.466 0 015.468.5H37.63a5.466 5.466 0 015.468 5.468V38.13a5.377 5.377 0 01-5.397 5.54z" fill="#F0EDF4"/><path d="M15.325 31.006v3.454c0 .791.864 1.223 1.295.648l3.31-3.886M17.124 24.963c-5.972-5.972-1.655-8.922-1.655-8.922.647-.648 1.799-.648 2.518.144l.792.791c.72.72.791 1.871.143 2.519l-.575.503c-.432.432-.432 1.223.072 1.727l.935.935M21.44 12.875s2.663-.144 5.325 2.447" stroke="#877998" stroke-width="1.4" stroke-miterlimit="10" stroke-linecap="round"/><path d="M19.93 31.222h6.188A7.093 7.093 0 0033.24 24.1v-6.763a7.093 7.093 0 00-7.123-7.123h-9.065a7.093 7.093 0 00-7.123 7.123V24.1c0 3.31 2.302 6.116 5.396 6.907" stroke="#877998" stroke-width="1.4" stroke-miterlimit="10" stroke-linecap="round"/><path d="M17.124 24.963c6.044 6.044 8.922 1.655 8.922 1.655.647-.648.647-1.8-.144-2.519l-.792-.791c-.72-.72-1.87-.791-2.518-.144l-.575.576c-.432.431-1.224.431-1.727-.072l-.935-.936M21.225 18.991s1.727.072 1.799 1.799M21.297 15.825s1.799-.144 3.382 1.511M26.261 20.718s.144-1.8-1.51-3.382M29.211 20.646s.144-2.662-2.446-5.325" stroke="#877998" stroke-width="1.4" stroke-miterlimit="10" stroke-linecap="round"/></svg><svg fill="none" viewBox="0 0 44 44" id="vkontakte" xmlns="http://www.w3.org/2000/svg"><path d="M38.2 43.67H6.037A5.466 5.466 0 01.57 38.2V5.968A5.466 5.466 0 016.038.5h32.161a5.466 5.466 0 015.468 5.468V38.13c0 3.093-2.446 5.54-5.468 5.54z" fill="#F0EDF4"/><path d="M20.356 30.719h1.727s.503-.072.791-.36c.216-.288.216-.792.216-.792s0-2.374 1.08-2.662c1.078-.36 2.445 2.23 3.884 3.238 1.08.791 1.943.576 1.943.576l3.885-.072s2.015-.144 1.08-1.727c-.072-.144-.576-1.223-2.878-3.382-2.447-2.302-2.087-1.87.791-5.828 1.799-2.374 2.518-3.885 2.302-4.46-.215-.576-1.51-.432-1.51-.432h-4.39s-.36-.072-.575.072c-.216.144-.36.503-.36.503s-.72 1.871-1.655 3.454c-1.942 3.31-2.734 3.526-3.021 3.31-.72-.504-.576-1.943-.576-2.95 0-3.238.504-4.533-.935-4.893-.504-.144-.792-.216-2.015-.216-1.583 0-2.878 0-3.67.36-.503.216-.863.792-.647.792.288 0 .935.215 1.295.647.432.576.432 2.015.432 2.015s.288 3.813-.576 4.245c-.575.36-1.439-.36-3.165-3.382-.864-1.51-1.583-3.238-1.583-3.238s-.144-.287-.36-.503a1.817 1.817 0 00-.648-.288H7.045s-.647 0-.863.288c-.216.216 0 .72 0 .72S9.42 23.38 13.16 27.264c3.31 3.741 7.195 3.454 7.195 3.454z" stroke="#877998" stroke-width="1.4" stroke-miterlimit="10" stroke-linecap="round" stroke-linejoin="round"/></svg><svg fill="none" viewBox="0 0 44 44" id="whatsapp" xmlns="http://www.w3.org/2000/svg"><path d="M38.534 43.67H6.301A5.466 5.466 0 01.833 38.2V5.968A5.466 5.466 0 016.3.5h32.161a5.466 5.466 0 015.468 5.468V38.13a5.377 5.377 0 01-5.396 5.54z" fill="#F0EDF4"/><path d="M19.755 24.315c-5.612-5.612-1.582-8.418-1.582-8.418.647-.647 1.654-.575 2.374.072l.791.792c.648.647.72 1.726.072 2.374l-.503.504c-.432.431-.432 1.15.072 1.654l.935.936" stroke="#877998" stroke-width="1.4" stroke-miterlimit="10" stroke-linecap="round"/><path d="M19.755 24.315c5.684 5.684 8.418 1.583 8.418 1.583.648-.647.576-1.655-.071-2.374l-.792-.792c-.647-.647-1.727-.72-2.374-.072l-.504.504a1.07 1.07 0 01-1.583-.072l-.935-.935" stroke="#877998" stroke-width="1.4" stroke-miterlimit="10" stroke-linecap="round"/><path d="M16.374 32.086c4.748 2.878 11.008 2.23 15.109-1.871 4.82-4.82 4.82-12.663 0-17.556-4.82-4.82-12.663-4.82-17.556 0-4.1 4.101-4.748 10.361-1.87 15.11" stroke="#877998" stroke-width="1.4" stroke-miterlimit="10" stroke-linecap="round"/><path d="M16.374 32.086l-5.9 1.583 1.583-5.9" stroke="#877998" stroke-width="1.4" stroke-miterlimit="10" stroke-linecap="round" stroke-linejoin="round"/></svg></svg>